<mxfile host="app.diagrams.net" modified="2024-06-10T16:30:23.999Z" agent="Mozilla/5.0 (Windows NT 10.0; Win64; x64; rv:126.0) Gecko/20100101 Firefox/126.0" etag="AuWRyyw_ltUlaN1DbruO" version="24.5.2" type="device">
  <diagram name="Strona-1" id="6HkIy6ulbnla7I3tChoI">
    <mxGraphModel dx="1434" dy="754" grid="1" gridSize="10" guides="1" tooltips="1" connect="1" arrows="1" fold="1" page="1" pageScale="1" pageWidth="827" pageHeight="1169" math="0" shadow="0">
      <root>
        <mxCell id="0" />
        <mxCell id="1" parent="0" />
        <mxCell id="0xC4HbDB4452kfhdaKBw-1" value="&lt;div&gt;Rasbperry Pi 4B&lt;/div&gt;" style="rounded=0;whiteSpace=wrap;html=1;fillColor=#f8cecc;strokeColor=#b85450;" vertex="1" parent="1">
          <mxGeometry x="30" y="310" width="240" height="120" as="geometry" />
        </mxCell>
        <mxCell id="0xC4HbDB4452kfhdaKBw-2" value="" style="rounded=0;whiteSpace=wrap;html=1;fillColor=#f5f5f5;fontColor=#333333;strokeColor=#666666;" vertex="1" parent="1">
          <mxGeometry x="330" y="190" width="446" height="360" as="geometry" />
        </mxCell>
        <mxCell id="0xC4HbDB4452kfhdaKBw-3" value="Przetwornik A/C" style="rounded=0;whiteSpace=wrap;html=1;fillColor=#d5e8d4;strokeColor=#82b366;" vertex="1" parent="1">
          <mxGeometry x="630" y="300" width="120" height="60" as="geometry" />
        </mxCell>
        <mxCell id="0xC4HbDB4452kfhdaKBw-4" value="Regulator napięcia 12V" style="rounded=0;whiteSpace=wrap;html=1;fillColor=#e1d5e7;strokeColor=#9673a6;" vertex="1" parent="1">
          <mxGeometry x="350" y="210" width="120" height="60" as="geometry" />
        </mxCell>
        <mxCell id="0xC4HbDB4452kfhdaKBw-5" value="Regulator napięcia 5V" style="rounded=0;whiteSpace=wrap;html=1;fillColor=#f8cecc;strokeColor=#b85450;" vertex="1" parent="1">
          <mxGeometry x="350" y="340" width="120" height="60" as="geometry" />
        </mxCell>
        <mxCell id="0xC4HbDB4452kfhdaKBw-7" value="Przekaźniki" style="rounded=0;whiteSpace=wrap;html=1;fillColor=#f8cecc;strokeColor=#b85450;" vertex="1" parent="1">
          <mxGeometry x="630" y="210" width="120" height="60" as="geometry" />
        </mxCell>
        <mxCell id="0xC4HbDB4452kfhdaKBw-8" value="Generator PWM" style="rounded=0;whiteSpace=wrap;html=1;fillColor=#d5e8d4;strokeColor=#82b366;" vertex="1" parent="1">
          <mxGeometry x="630" y="380" width="120" height="60" as="geometry" />
        </mxCell>
        <mxCell id="0xC4HbDB4452kfhdaKBw-9" value="Zegar RTC" style="rounded=0;whiteSpace=wrap;html=1;fillColor=#d5e8d4;strokeColor=#82b366;" vertex="1" parent="1">
          <mxGeometry x="493" y="210" width="120" height="60" as="geometry" />
        </mxCell>
        <mxCell id="0xC4HbDB4452kfhdaKBw-11" value="Wyprowadzenia służące do komunikacji" style="rounded=0;whiteSpace=wrap;html=1;" vertex="1" parent="1">
          <mxGeometry x="493" y="470" width="120" height="60" as="geometry" />
        </mxCell>
        <mxCell id="0xC4HbDB4452kfhdaKBw-12" value="UART - RS485" style="rounded=0;whiteSpace=wrap;html=1;fillColor=#f8cecc;strokeColor=#b85450;" vertex="1" parent="1">
          <mxGeometry x="630" y="470" width="120" height="60" as="geometry" />
        </mxCell>
        <mxCell id="0xC4HbDB4452kfhdaKBw-13" value="" style="endArrow=classic;html=1;rounded=0;exitX=0;exitY=0.5;exitDx=0;exitDy=0;entryX=1;entryY=0.5;entryDx=0;entryDy=0;" edge="1" parent="1" source="0xC4HbDB4452kfhdaKBw-5" target="0xC4HbDB4452kfhdaKBw-1">
          <mxGeometry width="50" height="50" relative="1" as="geometry">
            <mxPoint x="110" y="560" as="sourcePoint" />
            <mxPoint x="250" y="510" as="targetPoint" />
          </mxGeometry>
        </mxCell>
        <mxCell id="0xC4HbDB4452kfhdaKBw-16" value="Zewnętrzny zasilacz impulsowy" style="rounded=0;whiteSpace=wrap;html=1;fillColor=#e1d5e7;strokeColor=#9673a6;" vertex="1" parent="1">
          <mxGeometry x="330.5" y="30" width="159" height="80" as="geometry" />
        </mxCell>
        <mxCell id="0xC4HbDB4452kfhdaKBw-17" value="" style="endArrow=classic;html=1;rounded=0;exitX=0.5;exitY=1;exitDx=0;exitDy=0;entryX=0.5;entryY=0;entryDx=0;entryDy=0;" edge="1" parent="1" source="0xC4HbDB4452kfhdaKBw-16" target="0xC4HbDB4452kfhdaKBw-4">
          <mxGeometry width="50" height="50" relative="1" as="geometry">
            <mxPoint x="403" y="320" as="sourcePoint" />
            <mxPoint x="403" y="160" as="targetPoint" />
          </mxGeometry>
        </mxCell>
        <mxCell id="0xC4HbDB4452kfhdaKBw-18" value="" style="endArrow=classic;html=1;rounded=0;exitX=0.5;exitY=1;exitDx=0;exitDy=0;entryX=0.5;entryY=0;entryDx=0;entryDy=0;" edge="1" parent="1" source="0xC4HbDB4452kfhdaKBw-4" target="0xC4HbDB4452kfhdaKBw-5">
          <mxGeometry width="50" height="50" relative="1" as="geometry">
            <mxPoint x="396.5" y="585" as="sourcePoint" />
            <mxPoint x="330" y="645" as="targetPoint" />
          </mxGeometry>
        </mxCell>
        <mxCell id="0xC4HbDB4452kfhdaKBw-19" value="" style="endArrow=classic;html=1;rounded=0;exitX=0.5;exitY=1;exitDx=0;exitDy=0;entryX=0.5;entryY=0;entryDx=0;entryDy=0;" edge="1" parent="1" source="0xC4HbDB4452kfhdaKBw-5" target="0xC4HbDB4452kfhdaKBw-6">
          <mxGeometry width="50" height="50" relative="1" as="geometry">
            <mxPoint x="510" y="450" as="sourcePoint" />
            <mxPoint x="560" y="400" as="targetPoint" />
            <Array as="points">
              <mxPoint x="410" y="440" />
            </Array>
          </mxGeometry>
        </mxCell>
        <mxCell id="0xC4HbDB4452kfhdaKBw-20" value="&lt;div&gt;Czujniki:&lt;/div&gt;&lt;div&gt;- Temperatur i wilgotność powietrza&lt;/div&gt;&lt;div&gt;- Dwutlenek węgla&lt;/div&gt;&lt;div&gt;- Czujnik oświetlenia&lt;br&gt;&lt;/div&gt;" style="rounded=0;whiteSpace=wrap;html=1;fillColor=#d5e8d4;strokeColor=#82b366;" vertex="1" parent="1">
          <mxGeometry x="305" y="630" width="210" height="80" as="geometry" />
        </mxCell>
        <mxCell id="0xC4HbDB4452kfhdaKBw-21" value="" style="endArrow=classic;startArrow=classic;html=1;rounded=0;entryX=0.5;entryY=1;entryDx=0;entryDy=0;exitX=0.5;exitY=0;exitDx=0;exitDy=0;" edge="1" parent="1" source="0xC4HbDB4452kfhdaKBw-20" target="0xC4HbDB4452kfhdaKBw-11">
          <mxGeometry width="50" height="50" relative="1" as="geometry">
            <mxPoint x="330" y="630" as="sourcePoint" />
            <mxPoint x="380" y="580" as="targetPoint" />
            <Array as="points">
              <mxPoint x="410" y="600" />
              <mxPoint x="553" y="600" />
            </Array>
          </mxGeometry>
        </mxCell>
        <mxCell id="0xC4HbDB4452kfhdaKBw-22" value="Czujnik gleby NPK" style="rounded=0;whiteSpace=wrap;html=1;fillColor=#f8cecc;strokeColor=#b85450;" vertex="1" parent="1">
          <mxGeometry x="590" y="630" width="200" height="80" as="geometry" />
        </mxCell>
        <mxCell id="0xC4HbDB4452kfhdaKBw-23" value="" style="endArrow=classic;startArrow=classic;html=1;rounded=0;entryX=0.5;entryY=1;entryDx=0;entryDy=0;exitX=0.5;exitY=0;exitDx=0;exitDy=0;" edge="1" parent="1" source="0xC4HbDB4452kfhdaKBw-22" target="0xC4HbDB4452kfhdaKBw-12">
          <mxGeometry width="50" height="50" relative="1" as="geometry">
            <mxPoint x="640" y="640" as="sourcePoint" />
            <mxPoint x="690" y="590" as="targetPoint" />
          </mxGeometry>
        </mxCell>
        <mxCell id="0xC4HbDB4452kfhdaKBw-6" value="Regulator napięcia 3.3V" style="rounded=0;whiteSpace=wrap;html=1;fillColor=#d5e8d4;strokeColor=#82b366;" vertex="1" parent="1">
          <mxGeometry x="350" y="470" width="120" height="60" as="geometry" />
        </mxCell>
        <mxCell id="0xC4HbDB4452kfhdaKBw-31" value="" style="endArrow=classic;startArrow=classic;html=1;rounded=0;entryX=0.5;entryY=1;entryDx=0;entryDy=0;exitX=0.25;exitY=1;exitDx=0;exitDy=0;" edge="1" parent="1" source="0xC4HbDB4452kfhdaKBw-11" target="0xC4HbDB4452kfhdaKBw-1">
          <mxGeometry width="50" height="50" relative="1" as="geometry">
            <mxPoint x="170" y="570" as="sourcePoint" />
            <mxPoint x="220" y="520" as="targetPoint" />
            <Array as="points">
              <mxPoint x="523" y="580" />
              <mxPoint x="150" y="580" />
            </Array>
          </mxGeometry>
        </mxCell>
        <mxCell id="0xC4HbDB4452kfhdaKBw-36" value="" style="endArrow=classic;startArrow=classic;html=1;rounded=0;entryX=0;entryY=1;entryDx=0;entryDy=0;exitX=0;exitY=0;exitDx=0;exitDy=0;" edge="1" parent="1" source="0xC4HbDB4452kfhdaKBw-11" target="0xC4HbDB4452kfhdaKBw-9">
          <mxGeometry width="50" height="50" relative="1" as="geometry">
            <mxPoint x="520" y="370" as="sourcePoint" />
            <mxPoint x="570" y="320" as="targetPoint" />
          </mxGeometry>
        </mxCell>
        <mxCell id="0xC4HbDB4452kfhdaKBw-38" value="" style="endArrow=classic;startArrow=classic;html=1;rounded=0;entryX=0.5;entryY=1;entryDx=0;entryDy=0;exitX=0.25;exitY=0;exitDx=0;exitDy=0;" edge="1" parent="1" source="0xC4HbDB4452kfhdaKBw-11" target="0xC4HbDB4452kfhdaKBw-7">
          <mxGeometry width="50" height="50" relative="1" as="geometry">
            <mxPoint x="550" y="470" as="sourcePoint" />
            <mxPoint x="560" y="360" as="targetPoint" />
            <Array as="points">
              <mxPoint x="523" y="290" />
              <mxPoint x="630" y="290" />
              <mxPoint x="690" y="290" />
            </Array>
          </mxGeometry>
        </mxCell>
        <mxCell id="0xC4HbDB4452kfhdaKBw-39" value="" style="endArrow=classic;startArrow=classic;html=1;rounded=0;entryX=0;entryY=0.5;entryDx=0;entryDy=0;exitX=0.5;exitY=0;exitDx=0;exitDy=0;" edge="1" parent="1" source="0xC4HbDB4452kfhdaKBw-11" target="0xC4HbDB4452kfhdaKBw-3">
          <mxGeometry width="50" height="50" relative="1" as="geometry">
            <mxPoint x="520" y="420" as="sourcePoint" />
            <mxPoint x="570" y="370" as="targetPoint" />
            <Array as="points">
              <mxPoint x="553" y="330" />
            </Array>
          </mxGeometry>
        </mxCell>
        <mxCell id="0xC4HbDB4452kfhdaKBw-40" value="" style="endArrow=classic;startArrow=classic;html=1;rounded=0;entryX=0;entryY=0.5;entryDx=0;entryDy=0;exitX=0.75;exitY=0;exitDx=0;exitDy=0;" edge="1" parent="1" source="0xC4HbDB4452kfhdaKBw-11" target="0xC4HbDB4452kfhdaKBw-8">
          <mxGeometry width="50" height="50" relative="1" as="geometry">
            <mxPoint x="580" y="450" as="sourcePoint" />
            <mxPoint x="630" y="400" as="targetPoint" />
            <Array as="points">
              <mxPoint x="583" y="410" />
            </Array>
          </mxGeometry>
        </mxCell>
        <mxCell id="0xC4HbDB4452kfhdaKBw-41" value="" style="endArrow=classic;startArrow=classic;html=1;rounded=0;exitX=1;exitY=0;exitDx=0;exitDy=0;entryX=0.5;entryY=0;entryDx=0;entryDy=0;" edge="1" parent="1" source="0xC4HbDB4452kfhdaKBw-11" target="0xC4HbDB4452kfhdaKBw-12">
          <mxGeometry width="50" height="50" relative="1" as="geometry">
            <mxPoint x="160" y="200" as="sourcePoint" />
            <mxPoint x="210" y="150" as="targetPoint" />
            <Array as="points">
              <mxPoint x="613" y="450" />
              <mxPoint x="650" y="450" />
              <mxPoint x="690" y="450" />
            </Array>
          </mxGeometry>
        </mxCell>
        <mxCell id="0xC4HbDB4452kfhdaKBw-44" value="Pompa wody" style="rounded=0;whiteSpace=wrap;html=1;fillColor=#f8cecc;strokeColor=#b85450;" vertex="1" parent="1">
          <mxGeometry x="610.5" y="30" width="159" height="80" as="geometry" />
        </mxCell>
        <mxCell id="0xC4HbDB4452kfhdaKBw-45" value="" style="endArrow=classic;html=1;rounded=0;entryX=0.5;entryY=1;entryDx=0;entryDy=0;exitX=0.5;exitY=0;exitDx=0;exitDy=0;" edge="1" parent="1" source="0xC4HbDB4452kfhdaKBw-7" target="0xC4HbDB4452kfhdaKBw-44">
          <mxGeometry width="50" height="50" relative="1" as="geometry">
            <mxPoint x="650" y="180" as="sourcePoint" />
            <mxPoint x="700" y="130" as="targetPoint" />
          </mxGeometry>
        </mxCell>
        <mxCell id="0xC4HbDB4452kfhdaKBw-46" value="Sterowniki diod" style="rounded=0;whiteSpace=wrap;html=1;fillColor=#e1d5e7;strokeColor=#9673a6;" vertex="1" parent="1">
          <mxGeometry x="111" y="200" width="159" height="80" as="geometry" />
        </mxCell>
        <mxCell id="0xC4HbDB4452kfhdaKBw-47" value="" style="endArrow=classic;html=1;rounded=0;exitX=0;exitY=0.5;exitDx=0;exitDy=0;entryX=1;entryY=0.5;entryDx=0;entryDy=0;" edge="1" parent="1" source="0xC4HbDB4452kfhdaKBw-4" target="0xC4HbDB4452kfhdaKBw-46">
          <mxGeometry width="50" height="50" relative="1" as="geometry">
            <mxPoint x="270" y="290" as="sourcePoint" />
            <mxPoint x="320" y="240" as="targetPoint" />
          </mxGeometry>
        </mxCell>
        <mxCell id="0xC4HbDB4452kfhdaKBw-49" value="Urządzenie" style="text;html=1;align=center;verticalAlign=middle;whiteSpace=wrap;rounded=0;" vertex="1" parent="1">
          <mxGeometry x="510" y="160" width="60" height="30" as="geometry" />
        </mxCell>
      </root>
    </mxGraphModel>
  </diagram>
</mxfile>
